HIERARCHY
ROOT hip
{
	OFFSET 0.000000 0.000000 0.000000 
	CHANNELS 6 Xposition Yposition Zposition Xrotation Zrotation Yrotation
	JOINT abdomen
	{
		OFFSET 0.000000 3.402643 0.000000 
		CHANNELS 3 Xrotation Zrotation Yrotation
		JOINT chest
		{
			OFFSET 0.000000 8.438565 -0.680529 
			CHANNELS 3 Xrotation Zrotation Yrotation
			JOINT neck
			{
				OFFSET 0.000000 10.207942 -0.272212 
				CHANNELS 3 Xrotation Zrotation Yrotation
				JOINT head
				{
					OFFSET 0.000000 3.130431 0.000000 
					CHANNELS 3 Xrotation Zrotation Yrotation
					End Site
					{
						OFFSET 0.000000 3.130435 0.000000 
					}
				}
			}
			JOINT lCollar
			{
				OFFSET 3.470700 6.669187 -0.816635 
				CHANNELS 3 Yrotation Zrotation Xrotation
				JOINT lShldr
				{
					OFFSET 3.198488 0.000000 0.000000 
					CHANNELS 3 Zrotation Yrotation Xrotation
					JOINT lForeArm
					{
						OFFSET 10.139888 0.000000 0.000000 
						CHANNELS 3 Yrotation Zrotation Xrotation
						JOINT lHand
						{
							OFFSET 8.370511 0.000000 0.000000 
							CHANNELS 3 Zrotation Yrotation Xrotation
							End Site
							{
								OFFSET 4.083176 0.000000 0.000000 
							}
						}
					}
				}
			}
			JOINT rCollar
			{
				OFFSET -3.470700 6.669187 -0.816635 
				CHANNELS 3 Yrotation Zrotation Xrotation
				JOINT rShldr
				{
					OFFSET -3.198488 0.000000 0.000000 
					CHANNELS 3 Zrotation Yrotation Xrotation
					JOINT rForeArm
					{
						OFFSET -10.139888 0.000000 0.000000 
						CHANNELS 3 Yrotation Zrotation Xrotation
						JOINT rHand
						{
							OFFSET -8.370511 0.000000 0.000000 
							CHANNELS 3 Zrotation Yrotation Xrotation
							End Site
							{
								OFFSET -4.083176 0.000000 0.000000 
							}
						}
					}
				}
			}
		}
	}
	JOINT lThigh
	{
		OFFSET 5.308129 -1.633274 1.361059 
		CHANNELS 3 Xrotation Zrotation Yrotation
		JOINT lShin
		{
			OFFSET -2.041588 -20.007561 0.000000 
			CHANNELS 3 Xrotation Zrotation Yrotation
			JOINT lFoot
			{
				OFFSET 0.000000 -19.190928 -1.224953 
				CHANNELS 3 Xrotation Yrotation Zrotation
				End Site
				{
					OFFSET 0.000000 -2.449906 4.627600 
				}
			}
		}
	}
	JOINT rThigh
	{
		OFFSET -5.308129 -1.633274 1.361059 
		CHANNELS 3 Xrotation Zrotation Yrotation
		JOINT rShin
		{
			OFFSET 2.041588 -20.007561 0.000000 
			CHANNELS 3 Xrotation Zrotation Yrotation
			JOINT rFoot
			{
				OFFSET 0.000000 -19.190928 -1.224953 
				CHANNELS 3 Xrotation Yrotation Zrotation
				End Site
				{
					OFFSET 0.000000 -2.449906 4.627600 
				}
			}
		}
	}
}
MOTION
Frames: 10
Frame Time: 0.016667
1.734216 53.625950 -1.158856 -9.963140 1.552415 -1.162477 23.961445 -3.518619 -1.563320 4.619435 0.888464 -1.855471 -1.260834 8.846345 -0.609364 8.000183 -7.583790 13.074349 -18.094084 -10.310900 -0.534763 -63.614639 14.205722 -26.230165 -24.631893 -5.000000 23.557661 -16.585802 4.535704 12.852440 16.546556 14.696505 -0.785498 63.368843 -6.339408 -18.469950 23.065939 5.000000 16.373543 3.479562 -29.245296 4.290741 16.570662 6.172322 8.867380 7.136554 -5.457446 -0.892624 -12.574747 4.074399 -1.962962 17.225571 -11.884365 -2.693277 -0.077758 3.282521 0.082444 -4.092685 -17.704142 8.353062 
1.479019 53.619549 -1.110627 -10.018103 1.513415 -1.054835 23.922029 -3.518981 -1.562776 4.618802 0.917754 -1.855622 -1.301823 8.883506 -0.624747 8.035093 -7.547225 13.024687 -18.064045 -10.232882 -0.530742 -63.469704 14.118573 -25.948193 -24.963520 -5.000000 23.300131 -16.729158 4.703350 12.738346 16.555769 14.657495 -0.783478 63.395386 -6.343248 -18.455784 23.150940 5.000000 16.407694 4.134699 -29.337261 3.981956 16.686001 6.533180 8.974497 7.123333 -5.409701 -0.899468 -12.489849 4.031367 -2.227584 17.609108 -11.469976 -2.654792 -0.574712 3.223308 0.050616 -4.071118 -17.742002 8.192343 
1.221359 53.613113 -1.065814 -10.063195 1.474412 -0.937692 23.892382 -3.519336 -1.562229 4.607979 0.966570 -1.855622 -1.321891 8.931782 -0.632049 8.050773 -7.520746 12.954390 -18.043871 -10.164617 -0.527223 -63.341072 14.017569 -25.662909 -25.302845 -5.000000 23.049587 -16.871866 4.876692 12.611994 16.584927 14.647740 -0.782972 63.398941 -6.340288 -18.413567 23.242958 5.000000 16.395901 4.755754 -29.441442 3.671439 16.785210 6.894846 9.082433 7.122057 -5.346735 -0.877221 -12.359004 3.915388 -2.519064 17.958572 -11.044695 -2.617177 -0.994910 3.160353 0.014745 -4.073425 -17.804804 8.024066 
0.962714 53.606903 -1.024299 -10.118073 1.425635 -0.820544 23.853252 -3.506665 -1.566844 4.597367 1.005624 -1.865386 -1.351731 8.980058 -0.639350 8.065102 -7.493947 12.895050 -18.013933 -10.096351 -0.523704 -63.192554 13.919646 -25.362499 -25.638865 -5.000000 22.802217 -17.024839 5.051529 12.483113 16.601875 14.640775 -0.773411 63.403934 -6.332940 -18.383287 23.352547 5.000000 16.391953 5.378551 -29.530510 3.338959 16.868843 7.254806 9.171440 7.113113 -5.260696 -0.853123 -12.253852 3.860639 -2.800406 18.298824 -10.643972 -2.544220 -1.424208 3.131093 -0.032091 -4.100074 -17.815378 7.857860 
0.703808 53.601097 -0.986233 -10.142801 1.367096 -0.664107 23.823660 -3.466361 -1.560941 4.605896 1.054436 -1.875148 -1.391012 8.999369 -0.642271 8.081195 -7.447507 12.853800 -17.984182 -10.047590 -0.521189 -63.041935 13.785685 -25.061201 -25.986551 -5.000000 22.558908 -17.150637 5.216551 12.346680 16.650841 14.650525 -0.773917 63.388821 -6.318687 -18.347673 23.457813 5.000000 16.431589 5.912639 -29.592323 2.982438 16.944941 7.663999 9.261803 7.104012 -5.222436 -0.879865 -12.144811 3.758247 -3.072701 18.562515 -10.194747 -2.515569 -1.744277 3.088792 -0.051734 -4.200482 -17.926912 7.622978 
0.443873 53.595490 -0.951966 -10.158131 1.289010 -0.517667 23.784601 -3.425627 -1.554511 4.614436 1.093482 -1.904438 -1.431940 9.026873 -0.656187 8.104450 -7.400475 12.833180 -17.944757 -10.008582 -0.519177 -62.891796 13.650591 -24.760551 -26.334820 -5.000000 22.318182 -17.284771 5.392131 12.206498 16.690176 14.670029 -0.774928 63.364342 -6.290040 -18.318695 23.564404 5.000000 16.480875 6.446910 -29.657589 2.606835 16.979467 8.075521 9.332438 7.100659 -5.161370 -0.847974 -12.029941 3.681267 -3.364853 18.806765 -9.755338 -2.486821 -2.048862 3.073033 -0.080642 -4.308784 -17.955187 7.414601 
0.182039 53.589661 -0.921153 -10.173240 1.210916 -0.341721 23.774517 -3.372786 -1.554696 4.622510 1.152052 -1.933726 -1.471566 9.075148 -0.663487 8.090209 -7.363811 12.782271 -17.924868 -9.969573 -0.517165 -62.740047 13.509910 -24.449812 -26.674345 -5.000000 22.077509 -17.416847 5.534886 12.064466 16.729647 14.699286 -0.776444 63.337006 -6.261414 -18.268101 23.646341 5.000000 16.532152 6.898244 -29.705154 2.267179 17.025099 8.494683 9.406161 7.111385 -5.113185 -0.836920 -11.926579 3.628120 -3.578556 19.020613 -9.306092 -2.453677 -2.302252 3.062787 -0.057654 -4.427021 -18.050964 7.154045 
-0.081945 53.583702 -0.893792 -10.198376 1.123043 -0.156220 23.773174 -3.324051 -1.546860 4.630545 1.210622 -1.963011 -1.491897 9.142735 -0.673705 8.056714 -7.337214 12.712005 -17.895298 -9.940315 -0.515656 -62.591442 13.363874 -24.154957 -27.007153 -5.000000 21.830732 -17.545866 5.644610 11.953566 16.769257 14.738292 -0.778465 63.308182 -6.210965 -18.217691 23.718716 5.000000 16.586142 7.260518 -29.734631 1.955477 17.039835 8.955066 9.468178 7.147561 -5.062469 -0.827316 -11.800475 3.528909 -3.848566 19.182306 -8.825218 -2.421380 -2.493712 3.048657 -0.079475 -4.548564 -18.190519 6.863988 
-0.345060 53.577286 -0.870217 -10.214138 1.035156 0.039233 23.782515 -3.268237 -1.557075 4.628773 1.269190 -1.992510 -1.521890 9.200665 -0.682462 8.023150 -7.310591 12.642989 -17.875500 -9.911059 -0.514146 -62.451000 13.199636 -23.856865 -27.332684 -5.000000 21.594254 -17.684874 5.759002 11.819637 16.808867 14.777301 -0.780485 63.279373 -6.160476 -18.167337 23.781532 5.000000 16.639746 7.617167 -29.769882 1.638399 17.040466 9.385258 9.523982 7.198885 -5.023844 -0.810962 -11.705702 3.468193 -4.087595 19.357250 -8.356550 -2.370209 -2.699941 3.040638 -0.072888 -4.671767 -18.300245 6.583648 
-0.606076 53.570305 -0.849962 -10.229947 0.927724 0.273560 23.811590 -3.194095 -1.559778 4.626504 1.337515 -2.021798 -1.572877 9.247478 -0.700859 7.995051 -7.265154 12.563053 -17.847824 -9.908066 -0.523304 -62.286095 13.041970 -23.570280 -27.653801 -5.000000 21.401079 -17.777313 5.859912 11.679962 16.839130 14.845561 -0.784021 63.241192 -6.104273 -18.120398 23.864426 5.000000 16.734566 7.867257 -29.783781 1.329325 16.964167 9.870251 9.591705 7.309054 -4.948870 -0.826081 -11.651587 3.305061 -4.376472 19.493614 -7.877723 -2.355032 -2.821226 3.075866 -0.082008 -4.851129 -18.379406 6.299715 
